<?xml version="1.0" encoding="UTF-8"?>
<svg width="235px" height="100px" viewBox="0 0 235 100" version="1.1" xmlns="http://www.w3.org/2000/svg" xmlns:xlink="http://www.w3.org/1999/xlink">
    <!-- Generator: Sketch 64 (93537) - https://sketch.com -->
    <title>Company logo/light/Company logo_info_light</title>
    <desc>Created with Sketch.</desc>
    <g id="页面-2" stroke="none" stroke-width="1" fill="none" fill-rule="evenodd">
        <g id="Company-logo/light/Company-logo_info_light">
            <g id="编组-12备份-7">
                <g id="编组">
                    <g id="编组-2">
                        <circle id="椭圆形备份-3" fill="#FF6666" cx="15.2869898" cy="84.5280612" r="15.2869898"></circle>
                        <path d="M63.5031483,36.3490646 C65.4913734,36.3490646 67.1031483,37.9608395 67.1031483,39.9490646 L67.1030945,39.9687365 L66.9430272,69.2610544 C66.9430272,85.9777417 53.5269902,99.5609456 36.8746443,99.830938 L36.3690476,99.835034 L36.3690476,69.2610544 L36.4550476,69.2600646 L36.5387251,39.9388664 C36.5443462,37.9546307 38.1544671,36.3490646 40.1387107,36.3490646 L63.5031483,36.3490646 Z M110.462925,36.3490646 C112.45115,36.3490646 114.062925,37.9608395 114.062925,39.9490646 L114.062925,80.9480442 C114.062925,82.9362693 112.45115,84.5480442 110.462925,84.5480442 L87.0889456,84.5480442 C85.1007205,84.5480442 83.4889456,82.9362693 83.4889456,80.9480442 L83.4889456,39.9490646 C83.4889456,37.9608395 85.1007205,36.3490646 87.0889456,36.3490646 L110.462925,36.3490646 Z M147.334609,36.1692177 L147.791321,36.1728598 C162.834084,36.4129382 175.000712,48.4918978 175.381539,63.5000739 L175.381539,63.5000739 L175.390731,63.5111843 L175.390731,80.7681973 C175.390731,82.7564224 173.778956,84.3681973 171.790731,84.3681973 L171.790731,84.3681973 L134.028997,84.3681973 C132.040771,84.3681973 130.428997,82.7564224 130.428997,80.7681973 L130.428997,39.7692177 C130.428997,37.7809926 132.040771,36.1692177 134.028997,36.1692177 L147.334609,36.1692177 Z M209.201956,84.0085034 L209.201243,83.9662223 C196.561618,83.2216228 186.541241,72.7355104 186.541241,59.9090136 C186.541241,46.5992329 197.330951,35.8095238 210.640731,35.8095238 C223.467441,35.8095238 233.953689,45.8302336 234.697977,58.4701558 L234.740221,58.4702381 L234.740221,80.4085034 C234.740221,82.3967285 233.128446,84.0085034 231.140221,84.0085034 L209.201956,84.0085034 Z" id="形状结合" fill="#009999"></path>
                        <g id="编组-3" transform="translate(129.509779, 35.349915)">
                            <g id="编组备份-4" transform="translate(23.180272, 24.619048) scale(1, -1) translate(-23.180272, -24.619048) translate(0.000000, 0.239796)">
                                <g id="编组-5" transform="translate(23.060374, 24.379252) scale(-1, 1) translate(-23.060374, -24.379252) translate(0.279762, 0.000000)">
                                    <g id="编组-6">
                                        <g id="编组-7"></g>
                                    </g>
                                </g>
                            </g>
                        </g>
                        <g id="编组备份" transform="translate(83.448980, 0.000000)" fill="#FFCC66">
                            <circle id="椭圆形" cx="15.2869898" cy="15.2869898" r="15.2869898"></circle>
                        </g>
                    </g>
                </g>
            </g>
            <path d="M72.0625717,98 C72.2465744,98 72.3845764,97.9286196 72.4765778,97.7858589 C72.5685791,97.6430982 72.5796828,97.482889 72.5098886,97.3052312 L72.5098886,97.3052312 L69.8259872,90.9000337 C69.7435032,90.6779615 69.5880526,90.5669254 69.3596355,90.5669254 C69.1439082,90.5669254 68.9884576,90.6779615 68.8932838,90.9000337 L68.8932838,90.9000337 L66.2188998,97.2861964 C66.1427607,97.4575093 66.1522781,97.6193048 66.2474519,97.7715829 C66.3426257,97.923861 66.4790415,98 66.6566993,98 C66.7455282,98 66.8327708,97.9746203 66.9184273,97.923861 C67.0040837,97.8731016 67.0691191,97.7969625 67.1135336,97.6954438 L67.1135336,97.6954438 L67.658,96.364 L71.069,96.364 L71.6057374,97.6954438 C71.6342896,97.7668242 71.6762255,97.8266052 71.7315453,97.874787 L71.7913264,97.9191023 C71.8769828,97.9730341 71.9673979,98 72.0625717,98 Z M70.739,95.545 L67.993,95.545 L69.377,92.161 L70.739,95.545 Z M83.5783252,98 C83.7242584,98 83.8416394,97.9524131 83.9304683,97.8572393 C84.0192972,97.7620655 84.0637117,97.6446844 84.0637117,97.5050962 L84.0637117,97.5050962 L84.0637117,91.0618292 C84.0637117,90.9158961 84.0192972,90.7969288 83.9304683,90.7049274 C83.8416394,90.6129261 83.7242584,90.5669254 83.5783252,90.5669254 C83.438737,90.5669254 83.3213559,90.6129261 83.2261821,90.7049274 C83.1310083,90.7969288 83.0834214,90.9158961 83.0834214,91.0618292 L83.0834214,91.0618292 L83.0834214,96.2678367 L78.9338433,90.7477557 C78.8323246,90.6272022 78.7054261,90.5669254 78.553148,90.5669254 C78.4135598,90.5669254 78.297765,90.6129261 78.2057636,90.7049274 C78.1137623,90.7969288 78.0677616,90.9158961 78.0677616,91.0618292 L78.0677616,91.0618292 L78.0677616,97.5050962 C78.0677616,97.6446844 78.1137623,97.7620655 78.2057636,97.8572393 C78.297765,97.9524131 78.4135598,98 78.553148,98 C78.6990812,98 78.8180485,97.9524131 78.9100498,97.8572393 C79.0020512,97.7620655 79.0480519,97.6446844 79.0480519,97.5050962 L79.0480519,97.5050962 L79.0480519,92.3086061 L83.19763,97.8286871 C83.2420444,97.8857914 83.3007349,97.9286196 83.3737015,97.9571718 C83.4466681,97.9857239 83.514876,98 83.5783252,98 Z M91.5823039,98 C91.7282371,98 91.8456181,97.9571718 91.934447,97.8715154 C92.0232759,97.7858589 92.0676903,97.6732366 92.0676903,97.5336483 C92.0676903,97.400405 92.0232759,97.2925413 91.934447,97.2100574 C91.8456181,97.1275734 91.7282371,97.0863314 91.5823039,97.0863314 L91.5823039,97.0863314 L87.7753515,97.0863314 L87.7753515,94.7069862 L90.5068399,94.7069862 C90.652773,94.7069862 90.7701541,94.6641579 90.858983,94.5785015 C90.9478118,94.4928451 90.9922263,94.3833952 90.9922263,94.2501519 C90.9922263,94.1169085 90.9478118,94.0074587 90.858983,93.9218022 C90.7701541,93.8361458 90.652773,93.7933176 90.5068399,93.7933176 L90.5068399,93.7933176 L87.7753515,93.7933176 L87.7753515,91.480594 L91.5823039,91.480594 C91.7282371,91.480594 91.8456181,91.439352 91.934447,91.356868 C92.0232759,91.2743841 92.0676903,91.1665204 92.0676903,91.0332771 C92.0676903,90.8936888 92.0232759,90.7810665 91.934447,90.6954101 C91.8456181,90.6097536 91.7282371,90.5669254 91.5823039,90.5669254 L91.5823039,90.5669254 L87.2804477,90.5669254 C87.1408594,90.5669254 87.0234784,90.6129261 86.9283046,90.7049274 C86.8331308,90.7969288 86.7855439,90.9158961 86.7855439,91.0618292 L86.7855439,91.0618292 L86.7855439,97.5050962 C86.7855439,97.6446844 86.8331308,97.7620655 86.9283046,97.8572393 C87.0234784,97.9524131 87.1408594,98 87.2804477,98 L87.2804477,98 L91.5823039,98 Z M97.3782502,98.1522781 C97.9683278,98.1522781 98.4917838,98.0396558 98.9486181,97.8144111 C99.4054523,97.5891664 99.7623541,97.276679 100.019323,96.876949 C100.276293,96.477219 100.404777,96.0203847 100.404777,95.5064462 L100.404777,95.5064462 L100.404777,91.0618292 C100.404777,90.9158961 100.360363,90.7969288 100.271534,90.7049274 C100.182705,90.6129261 100.065324,90.5669254 99.9193909,90.5669254 C99.7798027,90.5669254 99.6624216,90.6129261 99.5672478,90.7049274 C99.472074,90.7969288 99.4244871,90.9158961 99.4244871,91.0618292 L99.4244871,91.0618292 L99.4244871,95.5064462 C99.4244871,95.8490719 99.3372445,96.1520418 99.1627591,96.4153561 C98.9882738,96.6786703 98.7471668,96.8848802 98.4394382,97.0339858 C98.1317095,97.1830915 97.7779802,97.2576443 97.3782502,97.2576443 C96.9658303,97.2576443 96.5994112,97.1830915 96.2789927,97.0339858 C95.9585742,96.8848802 95.7079498,96.6786703 95.5271196,96.4153561 C95.3462893,96.1520418 95.2558742,95.8490719 95.2558742,95.5064462 L95.2558742,95.5064462 L95.2558742,91.0618292 C95.2558742,90.9158961 95.2098735,90.7969288 95.1178722,90.7049274 C95.0258708,90.6129261 94.9069036,90.5669254 94.7609704,90.5669254 C94.6213822,90.5669254 94.5040011,90.6129261 94.4088273,90.7049274 C94.3136535,90.7969288 94.2660666,90.9158961 94.2660666,91.0618292 L94.2660666,91.0618292 L94.2660666,95.5064462 C94.2660666,96.0203847 94.3977237,96.477219 94.6610379,96.876949 C94.9243521,97.276679 95.2907713,97.5891664 95.7602954,97.8144111 C96.2298195,98.0396558 96.7691378,98.1522781 97.3782502,98.1522781 Z M107.571227,98 C107.774264,98 107.917025,97.9191023 107.999509,97.7573068 C108.081993,97.5955113 108.06613,97.4226122 107.951922,97.2386095 L107.951922,97.2386095 L106.497,94.897 L106.600454,94.8497469 C106.907125,94.6911239 107.157617,94.4818296 107.35193,94.2218641 L107.461777,94.0598043 C107.667987,93.7235235 107.771092,93.3396558 107.771092,92.9082011 C107.771092,92.4450219 107.667987,92.038947 107.461777,91.6899764 C107.255567,91.3410057 106.968459,91.0665879 106.600454,90.8667229 C106.232448,90.6668579 105.810511,90.5669254 105.334642,90.5669254 L105.334642,90.5669254 L103.621513,90.5669254 C103.481925,90.5669254 103.364544,90.6129261 103.26937,90.7049274 C103.174196,90.7969288 103.12661,90.9158961 103.12661,91.0618292 L103.12661,91.0618292 L103.12661,97.5050962 C103.12661,97.6446844 103.174196,97.7620655 103.26937,97.8572393 C103.364544,97.9524131 103.481925,98 103.621513,98 C103.767447,98 103.886414,97.9524131 103.978415,97.8572393 C104.070417,97.7620655 104.116417,97.6446844 104.116417,97.5050962 L104.116417,97.5050962 L104.116417,95.1352683 L105.334642,95.1352683 L105.334642,95.1352683 L105.508,95.13 L107.142944,97.7620655 C107.176784,97.8170548 107.215558,97.8621742 107.259268,97.8974238 L107.328533,97.9428957 C107.4015,97.9809652 107.482398,98 107.571227,98 Z M105.334642,94.2215997 L104.116417,94.2215997 L104.116417,91.480594 L105.334642,91.480594 C105.626508,91.480594 105.883478,91.5408707 106.10555,91.6614242 C106.327622,91.7819777 106.502107,91.9501181 106.629006,92.1658454 C106.755904,92.3815727 106.819353,92.6290246 106.819353,92.9082011 C106.819353,93.161998 106.755904,93.3888289 106.629006,93.5886939 C106.502107,93.7885589 106.327622,93.9440094 106.10555,94.0550456 C105.883478,94.1660817 105.626508,94.2215997 105.334642,94.2215997 L105.334642,94.2215997 Z M115.070784,98 C115.254787,98 115.392789,97.9286196 115.48479,97.7858589 C115.576791,97.6430982 115.587895,97.482889 115.518101,97.3052312 L115.518101,97.3052312 L112.834199,90.9000337 C112.751715,90.6779615 112.596265,90.5669254 112.367848,90.5669254 C112.15212,90.5669254 111.99667,90.6779615 111.901496,90.9000337 L111.901496,90.9000337 L109.227112,97.2861964 C109.150973,97.4575093 109.16049,97.6193048 109.255664,97.7715829 C109.350838,97.923861 109.487254,98 109.664912,98 C109.75374,98 109.840983,97.9746203 109.92664,97.923861 C110.012296,97.8731016 110.077331,97.7969625 110.121746,97.6954438 L110.121746,97.6954438 L110.666,96.364 L114.077,96.364 L114.61395,97.6954438 C114.642502,97.7668242 114.684438,97.8266052 114.739758,97.874787 L114.799539,97.9191023 C114.885195,97.9730341 114.97561,98 115.070784,98 Z M113.747,95.545 L111.001,95.545 L112.385,92.162 L113.747,95.545 Z M121.894607,98 C122.034196,98 122.151577,97.9524131 122.246751,97.8572393 C122.341924,97.7620655 122.389511,97.6446844 122.389511,97.5050962 C122.389511,97.3655079 122.341924,97.2481269 122.246751,97.1529531 C122.151577,97.0577793 122.034196,97.0101924 121.894607,97.0101924 L121.894607,97.0101924 L118.449315,97.0101924 L118.449315,91.0618292 C118.449315,90.922241 118.401729,90.8048599 118.306555,90.7096861 C118.211381,90.6145123 118.094,90.5669254 117.954412,90.5669254 C117.821168,90.5669254 117.70696,90.6145123 117.611786,90.7096861 C117.516612,90.8048599 117.469025,90.922241 117.469025,91.0618292 L117.469025,91.0618292 L117.469025,97.5050962 C117.469025,97.6446844 117.515026,97.7620655 117.607027,97.8572393 C117.699029,97.9524131 117.814823,98 117.954412,98 L117.954412,98 L121.894607,98 Z M130.364799,98.0951738 C130.707425,98.0951738 131.038947,98.0507594 131.359365,97.9619305 C131.679784,97.8731016 131.965305,97.738272 132.21593,97.5574418 C132.466554,97.3766115 132.666419,97.1529531 132.815525,96.8864664 C132.96463,96.6199798 133.039183,96.3059062 133.039183,95.9442457 C133.039183,95.3160985 132.828214,94.8100911 132.406277,94.4262234 C131.98434,94.0423557 131.395849,93.8123523 130.640803,93.7362133 C130.145899,93.6854539 129.76679,93.596625 129.503476,93.4697266 C129.240162,93.3428282 129.059332,93.1921363 128.960985,93.017651 C128.862639,92.8431657 128.813466,92.6607492 128.813466,92.4704016 C128.813466,92.0960513 128.972089,91.818461 129.289335,91.6376308 C129.606581,91.4568005 129.999966,91.3695579 130.46949,91.3759028 C130.735977,91.3759028 130.967566,91.4123861 131.164259,91.4853527 C131.360952,91.5583193 131.532264,91.6582518 131.678198,91.7851502 C131.824131,91.9120486 131.947857,92.0674992 132.049375,92.2515019 C132.11917,92.3720553 132.223861,92.4545393 132.363449,92.4989538 C132.503037,92.5433682 132.633108,92.5275059 132.753662,92.4513669 C132.861525,92.3815727 132.923388,92.2848127 132.939251,92.1610867 C132.955113,92.0373608 132.91863,91.9057037 132.829801,91.7661154 C132.671178,91.5059737 132.484003,91.280729 132.268275,91.0903814 C132.052548,90.9000337 131.800337,90.7509281 131.511643,90.6430645 C131.22295,90.5352008 130.885083,90.481269 130.498042,90.481269 C130.003139,90.481269 129.554235,90.557408 129.151333,90.7096861 C128.74843,90.8619642 128.429598,91.0840364 128.194836,91.3759028 C127.960074,91.6677692 127.842693,92.0230847 127.842693,92.4418495 C127.842693,93.0128923 128.067938,93.4919339 128.518427,93.878974 C128.968916,94.2660142 129.587546,94.4976038 130.374316,94.5737428 C130.977084,94.637192 131.410125,94.80216 131.673439,95.0686466 C131.936753,95.3351333 132.06841,95.636517 132.06841,95.9727978 C132.06841,96.2392845 131.989099,96.462943 131.830476,96.6437732 C131.671853,96.8246034 131.464057,96.9626055 131.207087,97.0577793 C130.950118,97.1529531 130.669355,97.20054 130.364799,97.20054 C130.091967,97.20054 129.831826,97.159298 129.584374,97.076814 C129.336922,96.9943301 129.125953,96.8864664 128.951468,96.7532231 C128.776983,96.6199798 128.65167,96.4740466 128.575531,96.3154236 C128.518427,96.1948701 128.434357,96.1044549 128.323321,96.0441782 C128.212285,95.9839015 128.099662,95.9664529 127.985454,95.9918326 C127.826831,96.0235572 127.714208,96.0965238 127.647587,96.2107324 C127.580965,96.3249409 127.579379,96.4486669 127.642828,96.5819102 C127.769726,96.8801215 127.969591,97.1434357 128.242423,97.3718529 C128.515255,97.60027 128.835673,97.7779278 129.203679,97.9048262 C129.571684,98.0317246 129.958724,98.0951738 130.364799,98.0951738 Z M140.167563,98 C140.313496,98 140.430877,97.9571718 140.519706,97.8715154 C140.608535,97.7858589 140.652949,97.6732366 140.652949,97.5336483 C140.652949,97.400405 140.608535,97.2925413 140.519706,97.2100574 C140.430877,97.1275734 140.313496,97.0863314 140.167563,97.0863314 L140.167563,97.0863314 L136.36061,97.0863314 L136.36061,94.7069862 L139.092099,94.7069862 C139.238032,94.7069862 139.355413,94.6641579 139.444242,94.5785015 C139.533071,94.4928451 139.577485,94.3833952 139.577485,94.2501519 C139.577485,94.1169085 139.533071,94.0074587 139.444242,93.9218022 C139.355413,93.8361458 139.238032,93.7933176 139.092099,93.7933176 L139.092099,93.7933176 L136.36061,93.7933176 L136.36061,91.480594 L140.167563,91.480594 C140.313496,91.480594 140.430877,91.439352 140.519706,91.356868 C140.608535,91.2743841 140.652949,91.1665204 140.652949,91.0332771 C140.652949,90.8936888 140.608535,90.7810665 140.519706,90.6954101 C140.430877,90.6097536 140.313496,90.5669254 140.167563,90.5669254 L140.167563,90.5669254 L135.865706,90.5669254 C135.726118,90.5669254 135.608737,90.6129261 135.513563,90.7049274 C135.41839,90.7969288 135.370803,90.9158961 135.370803,91.0618292 L135.370803,91.0618292 L135.370803,97.5050962 C135.370803,97.6446844 135.41839,97.7620655 135.513563,97.8572393 C135.608737,97.9524131 135.726118,98 135.865706,98 L135.865706,98 L140.167563,98 Z M147.962159,98 C148.146162,98 148.284164,97.9286196 148.376165,97.7858589 C148.468166,97.6430982 148.47927,97.482889 148.409476,97.3052312 L148.409476,97.3052312 L145.725574,90.9000337 C145.64309,90.6779615 145.48764,90.5669254 145.259223,90.5669254 C145.043495,90.5669254 144.888045,90.6779615 144.792871,90.9000337 L144.792871,90.9000337 L142.118487,97.2861964 C142.042348,97.4575093 142.051865,97.6193048 142.147039,97.7715829 C142.242213,97.923861 142.378629,98 142.556287,98 C142.645115,98 142.732358,97.9746203 142.818015,97.923861 C142.903671,97.8731016 142.968706,97.7969625 143.013121,97.6954438 L143.013121,97.6954438 L143.558,96.364 L146.969,96.364 L147.505325,97.6954438 C147.533877,97.7668242 147.575813,97.8266052 147.631133,97.874787 L147.690914,97.9191023 C147.77657,97.9730341 147.866985,98 147.962159,98 Z M146.639,95.545 L143.893,95.545 L145.277,92.161 L146.639,95.545 Z M154.805017,98 C155.008055,98 155.150815,97.9191023 155.233299,97.7573068 C155.315783,97.5955113 155.299921,97.4226122 155.185712,97.2386095 L155.185712,97.2386095 L153.73,94.898 L153.834244,94.8497469 C154.140915,94.6911239 154.391408,94.4818296 154.585721,94.2218641 L154.695567,94.0598043 C154.901777,93.7235235 155.004882,93.3396558 155.004882,92.9082011 C155.004882,92.4450219 154.901777,92.038947 154.695567,91.6899764 C154.489357,91.3410057 154.20225,91.0665879 153.834244,90.8667229 C153.466239,90.6668579 153.044302,90.5669254 152.568433,90.5669254 L152.568433,90.5669254 L150.855304,90.5669254 C150.715716,90.5669254 150.598335,90.6129261 150.503161,90.7049274 C150.407987,90.7969288 150.3604,90.9158961 150.3604,91.0618292 L150.3604,91.0618292 L150.3604,97.5050962 C150.3604,97.6446844 150.407987,97.7620655 150.503161,97.8572393 C150.598335,97.9524131 150.715716,98 150.855304,98 C151.001237,98 151.120205,97.9524131 151.212206,97.8572393 C151.304207,97.7620655 151.350208,97.6446844 151.350208,97.5050962 L151.350208,97.5050962 L151.350208,95.1352683 L152.568433,95.1352683 L152.568433,95.1352683 L152.742,95.13 L154.376735,97.7620655 C154.410575,97.8170548 154.449349,97.8621742 154.493059,97.8974238 L154.562324,97.9428957 C154.635291,97.9809652 154.716188,98 154.805017,98 Z M152.568433,94.2215997 L151.350208,94.2215997 L151.350208,91.480594 L152.568433,91.480594 C152.860299,91.480594 153.117268,91.5408707 153.339341,91.6614242 C153.561413,91.7819777 153.735898,91.9501181 153.862796,92.1658454 C153.989695,92.3815727 154.053144,92.6290246 154.053144,92.9082011 C154.053144,93.161998 153.989695,93.3888289 153.862796,93.5886939 C153.735898,93.7885589 153.561413,93.9440094 153.339341,94.0550456 C153.117268,94.1660817 152.860299,94.2215997 152.568433,94.2215997 L152.568433,94.2215997 Z M160.524824,98.0951738 C160.956279,98.0951738 161.367113,98.0253797 161.757325,97.8857914 C162.147538,97.7462032 162.513957,97.5399933 162.856583,97.2671617 C162.907342,97.2164023 162.945412,97.1608842 162.970791,97.1006075 C162.996171,97.0403307 163.008861,96.9784678 163.008861,96.9150186 C163.008861,96.7754303 162.970791,96.6659804 162.894652,96.5866689 C162.818513,96.5073574 162.724926,96.462943 162.61389,96.4534256 C162.502853,96.4439082 162.390231,96.4803915 162.276023,96.5628755 C162.009536,96.759568 161.731946,96.9134323 161.443252,97.0244684 C161.154558,97.1355046 160.848415,97.1910226 160.524824,97.1910226 C160.150474,97.1910226 159.798331,97.1164698 159.468395,96.9673642 C159.138459,96.8182585 158.848179,96.6104624 158.597555,96.3439757 C158.34693,96.077489 158.151824,95.7681741 158.012236,95.416031 C157.872648,95.063888 157.802853,94.6847789 157.802853,94.278704 C157.802853,93.878974 157.872648,93.5030375 158.012236,93.1508944 C158.151824,92.7987513 158.34693,92.4894364 158.597555,92.2229497 C158.848179,91.956463 159.138459,91.7470807 159.468395,91.5948026 C159.798331,91.4425245 160.150474,91.3663854 160.524824,91.3663854 C160.937244,91.3663854 161.268766,91.4203172 161.519391,91.5281809 C161.770015,91.6360445 162.012708,91.7914951 162.24747,91.9945326 C162.361679,92.0833615 162.47906,92.1230172 162.599613,92.1134998 C162.720167,92.1039825 162.823272,92.059568 162.908928,91.9802565 C162.994585,91.900945 163.037413,91.8010125 163.037413,91.680459 C163.037413,91.6233547 163.032654,91.5741816 163.023137,91.5329396 C163.01362,91.4916976 162.994585,91.4504556 162.966033,91.4092136 C162.937481,91.3679717 162.897825,91.3283159 162.847065,91.2902464 C162.49175,90.99838 162.138021,90.7889976 161.785877,90.6620992 C161.433734,90.5352008 161.013383,90.4717516 160.524824,90.4717516 C160.004541,90.4717516 159.522327,90.5700979 159.078183,90.7667904 C158.634038,90.963483 158.245412,91.2347283 157.912303,91.5805265 C157.579195,91.9263247 157.319053,92.3292271 157.131878,92.7892339 C156.944703,93.2492406 156.851115,93.7457307 156.851115,94.278704 C156.851115,94.8180223 156.944703,95.319271 157.131878,95.7824502 C157.319053,96.2456294 157.579195,96.6501181 157.912303,96.9959163 C158.245412,97.3417145 158.635624,97.6113736 159.082941,97.8048937 C159.530258,97.9984138 160.010886,98.0951738 160.524824,98.0951738 Z M171.307878,98 C171.453812,98 171.571193,97.9524131 171.660021,97.8572393 C171.74885,97.7620655 171.793265,97.6446844 171.793265,97.5050962 L171.793265,97.5050962 L171.793265,91.0618292 C171.793265,90.9158961 171.74885,90.7969288 171.660021,90.7049274 C171.571193,90.6129261 171.453812,90.5669254 171.307878,90.5669254 C171.16829,90.5669254 171.050909,90.6129261 170.955735,90.7049274 C170.860561,90.7969288 170.812975,90.9158961 170.812975,91.0618292 L170.812975,91.0618292 L170.812975,93.7933176 L166.39691,93.7933176 L166.39691,91.0618292 C166.39691,90.9158961 166.350909,90.7969288 166.258908,90.7049274 C166.166906,90.6129261 166.047939,90.5669254 165.902006,90.5669254 C165.762418,90.5669254 165.645037,90.6129261 165.549863,90.7049274 C165.454689,90.7969288 165.407102,90.9158961 165.407102,91.0618292 L165.407102,91.0618292 L165.407102,97.5050962 C165.407102,97.6446844 165.454689,97.7620655 165.549863,97.8572393 C165.645037,97.9524131 165.762418,98 165.902006,98 C166.047939,98 166.166906,97.9524131 166.258908,97.8572393 C166.350909,97.7620655 166.39691,97.6446844 166.39691,97.5050962 L166.39691,97.5050962 L166.39691,94.6689166 L170.812975,94.6689166 L170.812975,97.5050962 C170.812975,97.6446844 170.860561,97.7620655 170.955735,97.8572393 C171.050909,97.9524131 171.16829,98 171.307878,98 Z M181.453129,98.0951738 C181.884584,98.0951738 182.295417,98.0253797 182.68563,97.8857914 C183.075842,97.7462032 183.442262,97.5399933 183.784887,97.2671617 C183.835647,97.2164023 183.873716,97.1608842 183.899096,97.1006075 C183.924476,97.0403307 183.937165,96.9784678 183.937165,96.9150186 C183.937165,96.7754303 183.899096,96.6659804 183.822957,96.5866689 C183.746818,96.5073574 183.65323,96.462943 183.542194,96.4534256 C183.431158,96.4439082 183.318536,96.4803915 183.204327,96.5628755 C182.93784,96.759568 182.66025,96.9134323 182.371556,97.0244684 C182.082862,97.1355046 181.77672,97.1910226 181.453129,97.1910226 C181.078779,97.1910226 180.726636,97.1164698 180.3967,96.9673642 C180.066764,96.8182585 179.776484,96.6104624 179.525859,96.3439757 C179.275235,96.077489 179.080129,95.7681741 178.94054,95.416031 C178.800952,95.063888 178.731158,94.6847789 178.731158,94.278704 C178.731158,93.878974 178.800952,93.5030375 178.94054,93.1508944 C179.080129,92.7987513 179.275235,92.4894364 179.525859,92.2229497 C179.776484,91.956463 180.066764,91.7470807 180.3967,91.5948026 C180.726636,91.4425245 181.078779,91.3663854 181.453129,91.3663854 C181.865549,91.3663854 182.197071,91.4203172 182.447695,91.5281809 C182.69832,91.6360445 182.941013,91.7914951 183.175775,91.9945326 C183.289984,92.0833615 183.407365,92.1230172 183.527918,92.1134998 C183.648472,92.1039825 183.751577,92.059568 183.837233,91.9802565 C183.922889,91.900945 183.965718,91.8010125 183.965718,91.680459 C183.965718,91.6233547 183.960959,91.5741816 183.951442,91.5329396 C183.941924,91.4916976 183.922889,91.4504556 183.894337,91.4092136 C183.865785,91.3679717 183.826129,91.3283159 183.77537,91.2902464 C183.420054,90.99838 183.066325,90.7889976 182.714182,90.6620992 C182.362039,90.5352008 181.941688,90.4717516 181.453129,90.4717516 C180.932846,90.4717516 180.450632,90.5700979 180.006487,90.7667904 C179.562343,90.963483 179.173716,91.2347283 178.840608,91.5805265 C178.5075,91.9263247 178.247358,92.3292271 178.060183,92.7892339 C177.873008,93.2492406 177.77942,93.7457307 177.77942,94.278704 C177.77942,94.8180223 177.873008,95.319271 178.060183,95.7824502 C178.247358,96.2456294 178.5075,96.6501181 178.840608,96.9959163 C179.173716,97.3417145 179.563929,97.6113736 180.011246,97.8048937 C180.458563,97.9984138 180.93919,98.0951738 181.453129,98.0951738 Z M189.771181,98.0951738 C190.329534,98.0951738 190.838714,98.0015862 191.298721,97.8144111 C191.758728,97.6272359 192.156871,97.3639217 192.493152,97.0244684 C192.829433,96.6850152 193.089575,96.2821127 193.273577,95.8157611 C193.45758,95.3494094 193.549582,94.837057 193.549582,94.278704 C193.549582,93.720351 193.45758,93.2095849 193.273577,92.7464057 C193.089575,92.2832265 192.829433,91.8819102 192.493152,91.542457 C192.156871,91.2030037 191.758728,90.9396895 191.298721,90.7525143 C190.838714,90.5653392 190.329534,90.4717516 189.771181,90.4717516 C189.212828,90.4717516 188.702062,90.5653392 188.238883,90.7525143 C187.775704,90.9396895 187.37756,91.2030037 187.044452,91.542457 C186.711343,91.8819102 186.452788,92.2832265 186.268785,92.7464057 C186.084782,93.2095849 185.992781,93.720351 185.992781,94.278704 C185.992781,94.837057 186.084782,95.3494094 186.268785,95.8157611 C186.452788,96.2821127 186.711343,96.6850152 187.044452,97.0244684 C187.37756,97.3639217 187.775704,97.6272359 188.238883,97.8144111 C188.702062,98.0015862 189.212828,98.0951738 189.771181,98.0951738 Z M189.771181,97.20054 C189.358761,97.20054 188.979652,97.1259872 188.633854,96.9768815 C188.288056,96.8277759 187.989845,96.621566 187.73922,96.3582518 C187.488596,96.0949376 187.29349,95.7856227 187.153901,95.4303071 C187.014313,95.0749916 186.944519,94.6911239 186.944519,94.278704 C186.944519,93.8662842 187.014313,93.4824165 187.153901,93.1271009 C187.29349,92.7717854 187.488596,92.4624705 187.73922,92.1991563 C187.989845,91.9358421 188.288056,91.7312184 188.633854,91.5852852 C188.979652,91.439352 189.358761,91.3663854 189.771181,91.3663854 C190.183601,91.3663854 190.56271,91.439352 190.908508,91.5852852 C191.254306,91.7312184 191.554104,91.9358421 191.807901,92.1991563 C192.061698,92.4624705 192.256804,92.7717854 192.39322,93.1271009 C192.529636,93.4824165 192.597843,93.8662842 192.597843,94.278704 C192.597843,94.6911239 192.529636,95.0749916 192.39322,95.4303071 C192.256804,95.7856227 192.061698,96.0949376 191.807901,96.3582518 C191.554104,96.621566 191.254306,96.8277759 190.908508,96.9768815 C190.56271,97.1259872 190.183601,97.20054 189.771181,97.20054 Z M202.866959,98 C203.000202,98 203.115997,97.9524131 203.214343,97.8572393 C203.312689,97.7620655 203.361863,97.6446844 203.361863,97.5050962 L203.361863,97.5050962 L203.361863,91.0618292 C203.361863,90.9158961 203.314276,90.7969288 203.219102,90.7049274 C203.123928,90.6129261 203.006547,90.5669254 202.866959,90.5669254 C202.676611,90.5669254 202.530678,90.6557543 202.429159,90.8334121 L202.429159,90.8334121 L199.676,96.493 L196.851974,90.8334121 C196.767375,90.6853639 196.651933,90.5990025 196.505647,90.5743278 L196.414174,90.5669254 C196.274586,90.5669254 196.157205,90.6129261 196.062031,90.7049274 C195.966858,90.7969288 195.919271,90.9158961 195.919271,91.0618292 L195.919271,91.0618292 L195.919271,97.5050962 C195.919271,97.6446844 195.966858,97.7620655 196.062031,97.8572393 C196.157205,97.9524131 196.274586,98 196.414174,98 C196.553763,98 196.671144,97.9524131 196.766318,97.8572393 C196.861491,97.7620655 196.909078,97.6446844 196.909078,97.5050962 L196.909078,97.5050962 L196.909,92.863 L199.183732,97.4194398 C199.263044,97.5833502 199.382011,97.6789646 199.540634,97.706283 L199.640567,97.7144786 C199.818224,97.7144786 199.960985,97.6319946 200.068849,97.4670267 L200.068849,97.4670267 L202.372,92.772 L202.372055,97.5050962 C202.372055,97.6097874 202.398823,97.701987 202.452358,97.7816951 L202.514816,97.8572393 C202.60999,97.9524131 202.727371,98 202.866959,98 Z M206.578599,98 C206.724532,98 206.843499,97.9524131 206.9355,97.8572393 C207.027502,97.7620655 207.073502,97.6446844 207.073502,97.5050962 L207.073502,97.5050962 L207.073502,95.4207897 L208.482075,95.4207897 C208.957944,95.4207897 209.379881,95.319271 209.747887,95.1162335 C210.115892,94.9131961 210.403,94.6308471 210.609209,94.2691866 C210.815419,93.9075262 210.918524,93.4951063 210.918524,93.0319271 C210.918524,92.5497131 210.815419,92.1230172 210.609209,91.7518394 C210.403,91.3806615 210.115892,91.0903814 209.747887,90.880999 C209.379881,90.6716166 208.957944,90.5669254 208.482075,90.5669254 L208.482075,90.5669254 L206.578599,90.5669254 C206.43901,90.5669254 206.321629,90.6129261 206.226456,90.7049274 C206.131282,90.7969288 206.083695,90.9158961 206.083695,91.0618292 L206.083695,91.0618292 L206.083695,97.5050962 C206.083695,97.6446844 206.131282,97.7620655 206.226456,97.8572393 C206.321629,97.9524131 206.43901,98 206.578599,98 Z M208.482075,94.5071212 L207.073502,94.5071212 L207.073502,91.480594 L208.482075,91.480594 C208.773941,91.480594 209.03091,91.5472157 209.252983,91.680459 C209.475055,91.8137023 209.64954,91.9961188 209.776439,92.2277084 C209.903337,92.459298 209.966786,92.7273709 209.966786,93.0319271 C209.966786,93.3174485 209.903337,93.5712454 209.776439,93.7933176 C209.64954,94.0153898 209.475055,94.1898751 209.252983,94.3167735 C209.03091,94.443672 208.773941,94.5071212 208.482075,94.5071212 L208.482075,94.5071212 Z M217.656691,98 C217.840694,98 217.978696,97.9286196 218.070697,97.7858589 C218.162699,97.6430982 218.173802,97.482889 218.104008,97.3052312 L218.104008,97.3052312 L215.420107,90.9000337 C215.337623,90.6779615 215.182172,90.5669254 214.953755,90.5669254 C214.738028,90.5669254 214.582577,90.6779615 214.487403,90.9000337 L214.487403,90.9000337 L211.813019,97.2861964 C211.73688,97.4575093 211.746398,97.6193048 211.841572,97.7715829 C211.936745,97.923861 212.073161,98 212.250819,98 C212.339648,98 212.426891,97.9746203 212.512547,97.923861 C212.598203,97.8731016 212.663239,97.7969625 212.707653,97.6954438 L212.707653,97.6954438 L213.252,96.364 L216.663,96.364 L217.199857,97.6954438 C217.228409,97.7668242 217.270345,97.8266052 217.325665,97.874787 L217.385446,97.9191023 C217.471102,97.9730341 217.561518,98 217.656691,98 Z M216.333,95.545 L213.587,95.545 L214.971,92.162 L216.333,95.545 Z M225.565496,98 C225.711429,98 225.82881,97.9524131 225.917639,97.8572393 C226.006468,97.7620655 226.050883,97.6446844 226.050883,97.5050962 L226.050883,97.5050962 L226.050883,91.0618292 C226.050883,90.9158961 226.006468,90.7969288 225.917639,90.7049274 C225.82881,90.6129261 225.711429,90.5669254 225.565496,90.5669254 C225.425908,90.5669254 225.308527,90.6129261 225.213353,90.7049274 C225.118179,90.7969288 225.070592,90.9158961 225.070592,91.0618292 L225.070592,91.0618292 L225.070592,96.2678367 L220.921014,90.7477557 C220.819496,90.6272022 220.692597,90.5669254 220.540319,90.5669254 C220.400731,90.5669254 220.284936,90.6129261 220.192935,90.7049274 C220.100933,90.7969288 220.054933,90.9158961 220.054933,91.0618292 L220.054933,91.0618292 L220.054933,97.5050962 C220.054933,97.6446844 220.100933,97.7620655 220.192935,97.8572393 C220.284936,97.9524131 220.400731,98 220.540319,98 C220.686252,98 220.80522,97.9524131 220.897221,97.8572393 C220.989222,97.7620655 221.035223,97.6446844 221.035223,97.5050962 L221.035223,97.5050962 L221.035223,92.3086061 L225.184801,97.8286871 C225.229215,97.8857914 225.287906,97.9286196 225.360873,97.9571718 C225.433839,97.9857239 225.502047,98 225.565496,98 Z M230.999782,98 C231.13937,98 231.256751,97.9524131 231.351925,97.8572393 C231.447099,97.7620655 231.494686,97.6446844 231.494686,97.5050962 L231.494686,97.5050962 L231.494686,95.2875464 L234.054861,91.3378333 C234.131,91.2172798 234.162725,91.0983125 234.150035,90.9809315 C234.137345,90.8635505 234.092931,90.7652042 234.016792,90.6858927 C233.940653,90.6065812 233.845479,90.5669254 233.73127,90.5669254 C233.629752,90.5669254 233.544095,90.5875464 233.474301,90.6287884 C233.404507,90.6700304 233.34423,90.7287209 233.293471,90.8048599 L233.293471,90.8048599 L231.028,94.378 L228.801267,90.8429295 C228.763198,90.7837102 228.723718,90.7336558 228.682829,90.6927663 L228.620437,90.6383058 C228.556988,90.5907189 228.471331,90.5669254 228.363468,90.5669254 C228.242914,90.5669254 228.136637,90.6034087 228.044635,90.6763753 C227.952634,90.7493419 227.897116,90.8445157 227.878081,90.9618967 C227.859046,91.0792778 227.890771,91.2045899 227.973255,91.3378333 L227.973255,91.3378333 L230.514396,95.2875464 L230.514396,97.5050962 C230.514396,97.6446844 230.561983,97.7620655 230.657156,97.8572393 C230.75233,97.9524131 230.866539,98 230.999782,98 Z" id="ANEURALSEARCHCOMPANY" fill="#009999" fill-rule="nonzero"></path>
        </g>
    </g>
</svg>